<?xml version="1.0" standalone="no"?><!DOCTYPE svg PUBLIC "-//W3C//DTD SVG 1.1//EN" "http://www.w3.org/Graphics/SVG/1.1/DTD/svg11.dtd"><svg t="1589681720652" class="icon" viewBox="0 0 1024 1024" version="1.1" xmlns="http://www.w3.org/2000/svg" p-id="6337" xmlns:xlink="http://www.w3.org/1999/xlink" width="200" height="200"><defs><style type="text/css"></style></defs><path d="M501.883 48.122c-256.358 0-464.177 184.099-464.177 408.579 0 144.071 85.613 270.624 214.71 342.807v178.627l177.039-117.853c23.437 2.628 46.604 2.877 72.428 2.877 256.358 0 465.237-181.979 465.237-406.459s-208.879-408.579-465.237-408.579zM502.413 821.434c-26.529 0-50.489-0.187-75.642-4.338l-0.562 0.429-2.055-0.254-136.846 93.915-0.13-121.367 0.133 0.069v-20.775c-120.781-63.883-201.535-179.934-201.535-312.506 0-201.489 186.534-364.83 416.637-364.83 230.102 0 416.635 163.341 416.635 364.83 0 201.49-186.534 364.831-416.635 364.831z" p-id="6338"></path><path d="M529.835 659.535v0.105c-188.215-6.678-198.748-133.563-198.748-133.563h-35.97c34.971 182.801 235.257 170.084 235.257 170.084v-0.097c11.379 0.561 200.8 7.183 234.718-170.114h-35.97c-0.001-0.001-10.555 127.135-199.286 133.583z" p-id="6339"></path></svg>