<?xml version="1.0" standalone="no"?><!DOCTYPE svg PUBLIC "-//W3C//DTD SVG 1.1//EN" "http://www.w3.org/Graphics/SVG/1.1/DTD/svg11.dtd"><svg t="1589680783879" class="icon" viewBox="0 0 1024 1024" version="1.1" xmlns="http://www.w3.org/2000/svg" p-id="2145" xmlns:xlink="http://www.w3.org/1999/xlink" width="200" height="200"><defs><style type="text/css"></style></defs><path d="M835.810409 586.414827c-12.431124 0-24.886807 13.258978-24.91239 24.912389v224.218668c0 11.627828-12.480242 24.911366-24.912389 24.911366H237.926366c-12.431124 0-24.911366-13.282514-24.911366-24.911366V611.327216c0-11.676947-12.455683-24.912389-24.91239-24.912389-12.455683 0-24.911366 13.235442-24.911366 24.912389v235.554854c0 34.935674 30.361495 63.398936 67.65589 63.398935h561.538253c37.318954 0 67.655889-28.463262 67.655889-63.349816l0.681522-235.603973c0.024559-11.67797-12.456706-24.888853-24.912389-24.912389z m122.223692-189.07731l-76.584236-184.600345-738.609111 0.461511-74.650187 175.307702c-1.642406 2.310625-2.761903 4.938476-3.223415 7.759731a17.965164 17.965164 0 0 0 0.218988 12.334932c5.583159 53.716412 58.44818 95.973842 122.637108 95.973842 43.948955 0 82.581834-19.803022 104.355743-49.53109 22.892383 30.580482 64.46829 51.064003 111.859647 51.064003 46.052872 0 86.632079-19.340487 109.889783-48.486294 23.354917 28.658713 63.545268 47.609321 109.135606 47.60932 43.181475 0 81.522712-17.004279 105.291044-43.132356 21.894659 29.752628 60.772109 49.580209 104.951307 49.580209 65.297169 0 118.915343-43.256176 123.440404-97.872075 2.918469-4.888334 3.623527-10.849092 1.287319-16.46909z m-42.840714 7.907087c0 35.129078-35.665291 63.715137-79.480193 63.715137-43.813878 0-79.502705-28.586059-79.502705-63.715137 0-1.532913-0.218988-3.016707-0.608867-4.427846 0.023536-0.632403 0.049119-1.24127 0.049119-1.873673 0-10.776438-10.04682-19.510356-22.430872-19.510356-12.406564 0-22.429849 8.733918-22.429849 19.510356 0 35.154661-38.731116 63.739696-86.363973 63.739696-47.585785 0-86.340437-28.586059-86.340437-63.739696 0-10.776438-10.04682-19.510356-22.429849-19.510356-3.284813 0-6.398734 0.632403-9.221012 1.7519-9.147334 2.456958-15.764032 9.876951-15.764032 18.635429 0 35.129078-38.730093 63.715137-86.340437 63.715137-47.610344 0-86.340437-28.586059-86.340437-63.715137 0-10.29139-9.171893-18.708084-20.776186-19.463284a25.759687 25.759687 0 0 0-8.855692-1.581008c-12.407588 0-22.454408 8.732895-22.454408 19.534915 0 35.130102-35.372625 63.71616-78.846766 63.716161-41.709961 0-75.939553-26.298969-78.676897-59.433624l54.81135-140.03229h697.532577l54.81135 139.423423c-0.196475 1.045819-0.341784 2.140757-0.341784 3.260253zM210.131323 162.912393h603.662653c12.164041 0 22.017456-11.166317 22.017456-24.911366 0-13.769608-9.853415-24.912389-22.017456-24.912389H210.131323c-12.164041 0-22.028713 11.142781-22.028713 24.912389 0 13.745049 9.864672 24.911366 22.028713 24.911366z" p-id="2146" fill="#d81e06"></path></svg>