<?xml version="1.0" standalone="no"?><!DOCTYPE svg PUBLIC "-//W3C//DTD SVG 1.1//EN" "http://www.w3.org/Graphics/SVG/1.1/DTD/svg11.dtd"><svg t="1590467352791" class="icon" viewBox="0 0 1344 1024" version="1.1" xmlns="http://www.w3.org/2000/svg" p-id="7460" xmlns:xlink="http://www.w3.org/1999/xlink" width="262.5" height="200"><defs><style type="text/css"></style></defs><path d="M723.648 814.496l27.2 46.4a77.728 77.728 0 0 0 105.92 28l0.704-0.416 0.384-0.224a77.664 77.664 0 0 0 27.776-106.24l-36.672-62.56-13.312-22.88a64 64 0 0 1 1.376-66.816l96.128-150.08a64 64 0 0 1 108.064 0.448l275.744 438.304a64 64 0 0 1-54.176 98.08H109.12a64 64 0 0 1-55.104-96.544l311.36-527.04a64 64 0 0 1 110.272 0.128l247.712 421.664h0.032l0.256-0.224z m39.84-471.648c-86.4 0-156.448-69.568-156.448-155.424C607.04 101.6 677.12 32 763.52 32c86.4 0 156.416 69.6 156.416 155.424 0 85.856-70.048 155.424-156.448 155.424z" fill="#CFCFCF" p-id="7461"></path></svg>