<?xml version="1.0" standalone="no"?><!DOCTYPE svg PUBLIC "-//W3C//DTD SVG 1.1//EN" "http://www.w3.org/Graphics/SVG/1.1/DTD/svg11.dtd"><svg t="1589865988030" class="icon" viewBox="0 0 1024 1024" version="1.1" xmlns="http://www.w3.org/2000/svg" p-id="1995" xmlns:xlink="http://www.w3.org/1999/xlink" width="200" height="200"><defs><style type="text/css"></style></defs><path d="M511.468308 1003.106462C240.246154 1003.106462 19.554462 782.670769 19.554462 511.724308S240.246154 20.322462 511.468308 20.322462s491.913846 220.435692 491.913846 491.401846-220.672 491.382154-491.913846 491.382154z m0-938.121847c-246.567385 0-447.212308 200.408615-447.212308 446.739693s200.625231 446.72 447.212308 446.72 447.212308-200.388923 447.212307-446.72S758.153846 64.984615 511.468308 64.984615z m0 0" p-id="1996" fill="#8a8a8a"></path><path d="M702.877538 671.507692l-3.131076-3.131077c-0.669538-0.669538-1.358769-1.122462-1.792-1.575384l-154.95877-155.017846 157.184-157.026462c0.452923-0.216615 0.669538-0.669538 1.10277-0.886154a10.535385 10.535385 0 0 1 1.575384-1.575384 22.331077 22.331077 0 0 0-0.669538-29.046154l-1.969231-1.969231a22.882462 22.882462 0 0 0-27.273846-1.969231 10.574769 10.574769 0 0 0-1.575385 1.575385l-2.678154 2.461538-157.184 157.026462-157.203692-157.026462-2.461538-2.461538c-0.669538-0.669538-1.358769-1.122462-1.792-1.575385a22.882462 22.882462 0 0 0-27.273847 1.969231l-1.96923 1.969231a22.075077 22.075077 0 0 0-0.433231 29.046154c0.433231 0.433231 0.886154 1.102769 1.358769 1.575384s0.669538 0.669538 1.102769 0.886154l157.184 157.026462L321.851077 669.538462a22.429538 22.429538 0 0 0 29.952 33.299692 6055.995077 6055.995077 0 0 0 3.150769-3.150769l156.514462-156.553847L669.538462 701.046154a22.370462 22.370462 0 0 0 38.242461-15.635692 24.615385 24.615385 0 0 0-3.584-12.504616c-0.452923-0.472615-0.886154-1.122462-1.319385-1.575384z m0 0" p-id="1997" fill="#8a8a8a"></path></svg>