<?xml version="1.0" standalone="no"?><!DOCTYPE svg PUBLIC "-//W3C//DTD SVG 1.1//EN" "http://www.w3.org/Graphics/SVG/1.1/DTD/svg11.dtd"><svg t="1590476732160" class="icon" viewBox="0 0 1024 1024" version="1.1" xmlns="http://www.w3.org/2000/svg" p-id="8214" xmlns:xlink="http://www.w3.org/1999/xlink" width="200" height="200"><defs><style type="text/css"></style></defs><path d="M512 512m-512 0a512 512 0 1 0 1024 0 512 512 0 1 0-1024 0Z" fill="#EE2633" p-id="8215"></path><path d="M756.889935 460.138155c0-137.931387-109.635672-249.74594-244.889935-249.74594S267.110065 322.206768 267.110065 460.138155c0 4.380073 0.416442 8.611416 0.646972 12.894815-0.200784 2.11939-0.646972 4.156979-0.646972 6.335861 0 153.711547 226.068264 327.836166 226.068265 327.836165s18.836543 14.404415 37.673086 0 226.068264-174.124619 226.068264-327.836165c0-2.178882-0.446187-4.216471-0.646971-6.335861 0.223094-4.283399 0.639535-8.514742 0.639535-12.894815zM512 556.224604c-52.055192 0-94.190153-43.012462-94.190153-96.086449S459.974553 364.088889 512 364.088889s94.212462 43.012462 94.212462 96.049266-42.164706 96.086449-94.190153 96.086449z m0 0" fill="#FFFFFF" p-id="8216"></path></svg>