<?xml version="1.0" standalone="no"?><!DOCTYPE svg PUBLIC "-//W3C//DTD SVG 1.1//EN" "http://www.w3.org/Graphics/SVG/1.1/DTD/svg11.dtd"><svg t="1589507362520" class="icon" viewBox="0 0 1024 1024" version="1.1" xmlns="http://www.w3.org/2000/svg" p-id="2291" xmlns:xlink="http://www.w3.org/1999/xlink" width="200" height="200"><defs><style type="text/css"></style></defs><path d="M782.59078979 707.47916667c2.53125 0 4.640625-2.19342041 4.640625-4.93560791a4.76751709 4.76751709 0 0 0-4.640625-4.89440918c-2.57327271 0-4.640625 2.19424438-4.640625 4.89440918 0 2.7421875 2.06735229 4.93560791 4.640625 4.93560791z m-97.70690917 116.60641479c5.06332398 0 9.19720459-4.34564209 9.19720459-9.7451477a9.4921875 9.4921875 0 0 0-9.19638062-9.74597168 9.4921875 9.4921875 0 0 0-9.2392273 9.74597168c0 5.39950562 4.13388062 9.74514771 9.2392273 9.7451477z m-133.22763062 62.4375a14.25970459 14.25970459 0 0 0 13.83782959-14.63955688c0-8.09967041-6.20205688-14.68075562-13.83782959-14.68075562a14.25970459 14.25970459 0 0 0-13.87985229 14.68075562c0 8.09967041 6.20205688 14.68157959 13.87985229 14.68157959z m-143.859375-2.82623291a18.984375 18.984375 0 0 0 18.43560791-19.53314209 18.984375 18.984375 0 0 0-18.43560791-19.53314208 18.984375 18.984375 0 0 0-18.43560791 19.53314208 18.984375 18.984375 0 0 0 18.43560791 19.53231812z m-126.984375-66.65707397c12.69827271 0 23.03421021-10.96875 23.03421021-24.42590332 0-13.5-10.3359375-24.42672729-23.07623292-24.4267273-12.74111938 0-23.07705688 10.96875-23.07705688 24.4267273 0 13.5 10.3359375 24.42590333 23.07705688 24.42590332zM194.20123291 700.30729167c15.27236938 0 27.67565918-13.16217041 27.67565918-29.36233521 0-16.20016479-12.40328979-29.3203125-27.67565918-29.3203125-15.31356812 0-27.71685791 13.12014771-27.71685791 29.3203125 0 16.19934083 12.40328979 29.36233521 27.71685791 29.36233521zM164.54391479 555.77308146c17.84481812 0 32.2734375-15.31439209 32.2734375-34.171875 0-18.90032959-14.42779541-34.171875-32.2734375-34.171875-17.80361938 0-32.2734375 15.27154541-32.2734375 34.171875 0 18.85748291 14.46981812 34.171875 32.2734375 34.171875z m32.77935792-143.4795227c20.41891479 0 36.9140625-17.5078125 36.9140625-39.10830688s-16.49514771-39.06546021-36.9140625-39.06546021c-20.37689209 0-36.9140625 17.46578979-36.9140625 39.06546021s16.53717041 39.10830688 36.9140625 39.10830688z m89.10049438-114.75c22.94934082 0 41.5546875-19.70123291 41.5546875-44.00189209 0-24.29983521-18.5625-44.00189209-41.5546875-44.00189209-22.95016479 0-41.5546875 19.70123291-41.5546875 44.00189209 0 24.29983521 18.60452271 44.00189209 41.5546875 44.00189209z m128.62902832-63.703125c25.48141479 0 46.11126709-21.85345459 46.11126709-48.85345459s-20.671875-48.85345459-46.11126709-48.85345459c-25.48059083 0-46.15246582 21.89547729-46.15246582 48.85345459 0 27 20.671875 48.85345459 46.15246582 48.85345459z m143.90222168 0.6748352c28.0546875 0 50.79309082-24.046875 50.79309082-53.7890625 0-29.65814209-22.73840333-53.74703979-50.79309082-53.74703979-28.01266479 0-50.75189209 24.046875-50.75189209 53.74703979s22.73922729 53.7890625 50.75189209 53.7890625z m132.13092041 65.6015625c30.5859375 0 55.34967041-26.24111938 55.34967041-58.640625 0-32.31628418-24.76373291-58.59860229-55.34967041-58.59860229-30.54391479 0-55.34967041 26.28314209-55.34967041 58.640625 0 32.35748291 24.80575562 58.640625 55.34967041 58.640625z m95.25970459 119.05279542c33.1171875 0 59.99029541-28.43453979 59.99029541-63.4921875 0-35.09967041-26.87310791-63.53421021-59.99029541-63.53421021s-59.94909667 28.43453979-59.94909668 63.53421021c0 35.05764771 26.83190917 63.4921875 59.94909668 63.4921875z m40.7109375 152.80361938c35.6484375 0 64.58889771-30.67080688 64.5888977-68.42861938 0-37.79983521-28.94046021-68.42779541-64.5888977-68.42779542-35.69128418 0-64.63174438 30.62796021-64.63174438 68.42779542 0 37.7578125 28.94046021 68.42861938 64.63174438 68.42861938z" fill="#707070" p-id="2292"></path></svg>