<?xml version="1.0" standalone="no"?><!DOCTYPE svg PUBLIC "-//W3C//DTD SVG 1.1//EN" "http://www.w3.org/Graphics/SVG/1.1/DTD/svg11.dtd"><svg t="1589509323554" class="icon" viewBox="0 0 1024 1024" version="1.1" xmlns="http://www.w3.org/2000/svg" p-id="3510" xmlns:xlink="http://www.w3.org/1999/xlink" width="200" height="200"><defs><style type="text/css"></style></defs><path d="M491.453905 949.527273c9.309091 9.309091 27.927273 9.309091 37.236364 0L882.435724 493.381818c9.309091-9.309091 0-18.618182-9.309091-18.618182H696.253905c-18.618182 0-27.927273-9.309091-37.236363-27.927272l-9.309091-65.163637c0-18.618182-18.618182-27.927273-37.236364-27.927272H426.290269c-18.618182 0-27.927273 9.309091-37.236364 27.927272l-9.30909 65.163637c0 18.618182-18.618182 27.927273-37.236364 27.927272H165.635724c-18.618182 0-18.618182 9.309091-9.309091 18.618182l335.127272 456.145455zM593.853905 279.272727c18.618182 0 27.927273-9.309091 27.927273-27.927272l-9.309091-46.545455c0-18.618182-18.618182-27.927273-37.236363-27.927273H435.59936c-18.618182 0-27.927273 9.309091-37.236364 27.927273l-9.309091 46.545455c0 18.618182 9.309091 27.927273 27.927273 27.927272h176.872727zM556.617542 102.4c18.618182 0 27.927273-9.309091 18.618182-27.927273L565.926633 27.927273c0-18.618182-18.618182-27.927273-27.927273-27.927273H463.526633c-18.618182 0-27.927273 9.309091-27.927273 27.927273l-9.309091 46.545454c0 18.618182 9.309091 27.927273 18.618182 27.927273h111.709091z" fill="#B1B1B1" p-id="3511"></path></svg>