<?xml version="1.0" standalone="no"?><!DOCTYPE svg PUBLIC "-//W3C//DTD SVG 1.1//EN" "http://www.w3.org/Graphics/SVG/1.1/DTD/svg11.dtd"><svg t="1589507389675" class="icon" viewBox="0 0 1024 1024" version="1.1" xmlns="http://www.w3.org/2000/svg" p-id="2714" xmlns:xlink="http://www.w3.org/1999/xlink" width="200" height="200"><defs><style type="text/css"></style></defs><path d="M483.269455 1008.88183a30.115876 30.115876 0 0 0 39.57226 0l375.846127-484.624669c9.878007-9.878007 0-19.816246-9.938239-19.816246h-187.923063c-19.756014 0-29.634022-9.878007-39.512029-29.634021l-9.938239-69.266514c0-19.756014-19.756014-29.634022-39.512029-29.634022H414.063173c-19.816246 0-29.694253 9.878007-39.572261 29.634022l-9.938239 69.266514c0 19.756014-19.756014 29.634022-39.512028 29.634021H137.117581c-19.816246 0-19.816246 9.938239-9.878007 19.816246l355.969649 484.624669zM592.047997 296.761838c19.816246 0 29.694253-9.878007 29.694253-29.634022l-9.878007-49.510499c0-19.756014-19.816246-29.634022-39.57226-29.634022H423.94118c-19.816246 0-29.694253 9.878007-39.572261 29.634022l-9.878007 49.510499c0 19.756014 9.878007 29.634022 29.634022 29.634022h187.923063z m-39.57226-187.923064c19.816246 0 29.694253-9.878007 19.816246-29.634021L562.413976 29.754485C562.413976 9.938239 542.59773 0.060232 532.719722 0.060232H453.575201c-19.756014 0-29.634022 9.878007-29.634021 29.694253l-9.878007 49.390036c0 19.816246 9.878007 29.694253 19.756014 29.694253h118.65655z" fill="#ADB3D1" p-id="2715"></path></svg>