<?xml version="1.0" standalone="no"?><!DOCTYPE svg PUBLIC "-//W3C//DTD SVG 1.1//EN" "http://www.w3.org/Graphics/SVG/1.1/DTD/svg11.dtd"><svg t="1590457821243" class="icon" viewBox="0 0 1024 1024" version="1.1" xmlns="http://www.w3.org/2000/svg" p-id="5241" xmlns:xlink="http://www.w3.org/1999/xlink" width="200" height="200"><defs><style type="text/css"></style></defs><path d="M716.29157577 489.01719767h-20.42915712v89.37756411c2.55364521 0 10.21457931 0 20.42915712 2.55364521 45.96560466 5.10728891 66.39476178-10.21457931 66.39476329-45.96560466-2.55364521-33.19738164-22.98280233-45.96560466-66.39476329-45.96560466z m306.43736442-347.29568017c0-35.75102536-28.09009124-63.84111808-63.8411166-63.84111659h-893.77564718c-35.75102536 0-63.84111808 28.09009124-63.8411166 63.84111659V231.09908312h1021.45788038v-89.37756562z" fill="#d81e06" p-id="5242"></path><path d="M1.27105981 282.17197669v549.03361075c0 35.75102536 28.09009124 63.84111808 63.8411166 63.84111808h893.77564718c35.75102536 0 63.84111808-28.09009124 63.8411166-63.84111808V282.17197669H1.27105981z m360.06390318 467.31698073h-74.0556974L172.36525393 435.39065891h74.05569741l81.71663001 247.70353671h2.5536452l81.71663002-247.70353671h66.39476179l-117.46765537 314.09829851z m211.9525099 0h-68.948407V437.9443041h68.948407v311.54465332z m171.09419563-120.02130057h-48.51924987v120.02130057h-66.3947618V437.9443041h97.03849823c84.27027523 0 127.68223467 30.64373644 127.68223467 97.03849823-5.10728891 58.73382769-40.85831575 91.93120933-109.80672123 94.48485452z" fill="#d81e06" p-id="5243"></path></svg>