<?xml version="1.0" standalone="no"?><!DOCTYPE svg PUBLIC "-//W3C//DTD SVG 1.1//EN" "http://www.w3.org/Graphics/SVG/1.1/DTD/svg11.dtd"><svg t="1590457770334" class="icon" viewBox="0 0 1024 1024" version="1.1" xmlns="http://www.w3.org/2000/svg" p-id="3461" xmlns:xlink="http://www.w3.org/1999/xlink" width="200" height="200"><defs><style type="text/css"></style></defs><path d="M512 148.48c-226.21696 0-409.6 68.77184-409.6 153.6s183.38304 153.6 409.6 153.6 409.6-68.77184 409.6-153.6S738.21696 148.48 512 148.48zM512 404.48c-197.9392 0-358.4-45.84448-358.4-102.4s160.4608-102.4 358.4-102.4 358.4 45.84448 358.4 102.4S709.9392 404.48 512 404.48z" p-id="3462" fill="#d81e06"></path><path d="M775.26528 389.23776c-33.65376 9.69216-77.05088 17.5872-126.96064 22.92736C778.624 427.4944 870.4 464.11264 870.4 506.88c0 56.55552-160.4608 102.4-358.4 102.4s-358.4-45.84448-358.4-102.4c0-41.26208 85.4528-76.8 208.512-93.01504-48.86016-4.52608-92.2368-11.42784-127.19616-20.08576C153.47712 421.85728 102.4 462.12608 102.4 506.88c0 84.82816 183.38304 153.6 409.6 153.6s409.6-68.77184 409.6-153.6C921.6 459.648 864.70656 417.41312 775.26528 389.23776z" p-id="3463" fill="#d81e06"></path><path d="M775.26528 604.27776c-33.65376 9.69216-77.05088 17.59232-126.96064 22.92736C778.624 642.5344 870.4 679.15264 870.4 721.92c0 56.55552-160.4608 102.4-358.4 102.4s-358.4-45.84448-358.4-102.4c0-41.26208 85.4528-76.79488 208.512-93.00992-48.86016-4.52608-92.2368-11.42784-127.19616-20.08576C153.47712 636.89728 102.4 677.16608 102.4 721.92c0 84.82816 183.38304 153.6 409.6 153.6s409.6-68.77184 409.6-153.6C921.6 674.688 864.70656 632.45312 775.26528 604.27776z" p-id="3464" fill="#d81e06"></path></svg>