<?xml version="1.0" standalone="no"?><!DOCTYPE svg PUBLIC "-//W3C//DTD SVG 1.1//EN" "http://www.w3.org/Graphics/SVG/1.1/DTD/svg11.dtd"><svg t="1590457790820" class="icon" viewBox="0 0 1024 1024" version="1.1" xmlns="http://www.w3.org/2000/svg" p-id="4405" xmlns:xlink="http://www.w3.org/1999/xlink" width="200" height="200"><defs><style type="text/css"></style></defs><path d="M416 405.333q32 0 32 32v64q0 32-32 32t-32-32v-64q0-32 32-32z m213.333 0q32 0 32 32v64q0 32-32 32t-32-32v-64q0-32 32-32z" fill="#d81e06" p-id="4406"></path><path d="M850.603 837.056A467.456 467.456 0 0 0 981.333 512c0-258.773-210.517-469.333-469.29-469.333C253.184 42.56 42.667 253.12 42.667 512c0 258.773 210.517 469.333 469.29 469.333h341.888c16.662 0 31.766-9.642 38.784-24.64a42.773 42.773 0 0 0-5.76-45.61m-97.216 1.578H512C291.093 912.64 111.36 732.907 111.36 512S291.093 111.36 512 111.36 912.64 291.093 912.64 512a398.72 398.72 0 0 1-111.595 277.44c-32.085 33.28-29.461 79.296-11.392 123.221z" fill="#d81e06" p-id="4407"></path></svg>