<?xml version="1.0" standalone="no"?><!DOCTYPE svg PUBLIC "-//W3C//DTD SVG 1.1//EN" "http://www.w3.org/Graphics/SVG/1.1/DTD/svg11.dtd"><svg t="1590311851272" class="icon" viewBox="0 0 1024 1024" version="1.1" xmlns="http://www.w3.org/2000/svg" p-id="6153" xmlns:xlink="http://www.w3.org/1999/xlink" width="200" height="200"><defs><style type="text/css"></style></defs><path d="M507.73317 246.989071a185.719157 185.719157 0 0 0-185.480224 185.548491 185.719157 185.719157 0 0 0 185.480224 185.514357 185.719157 185.719157 0 0 0 185.480224-185.514357 185.719157 185.719157 0 0 0-185.480224-185.548491m136.737905 405.742257a354.439943 354.439943 0 0 1 181.281831 164.966125A435.096875 435.096875 0 0 0 950.271099 511.999829C950.134566 270.302099 753.561027 73.660293 511.999829 73.660293 270.336232 73.660293 73.72856 270.267966 73.72856 511.999829c0 114.926742 44.134326 223.163361 124.381659 305.561091 8.430919-16.179173 18.056503-31.675681 28.671952-46.114056a354.337543 354.337543 0 0 1 147.592288-116.599273 260.163833 260.163833 0 0 1-49.868717-39.048468 257.535571 257.535571 0 0 1-75.912407-183.295695c0-69.222285 26.965288-134.314443 75.912407-183.261561a257.433171 257.433171 0 0 1 183.227428-75.912407c69.222285 0 134.314443 26.965288 183.227428 75.912407a257.535571 257.535571 0 0 1 75.912407 183.295695c0 69.222285-26.965288 134.314443-75.912407 183.295694a260.778232 260.778232 0 0 1-46.489523 36.863939M255.693057 867.327237A434.10701 434.10701 0 0 0 511.999829 950.339365c92.671846 0 181.145298-28.671952 256.136107-82.875595a279.551534 279.551534 0 0 0-256.238506-166.809322 279.551534 279.551534 0 0 0-256.17024 166.672789M511.999829 1023.998976a509.780484 509.780484 0 0 1-322.047463-114.107543 520.498333 520.498333 0 0 1-39.935933-35.908207A509.780484 509.780484 0 0 1 0.000683 511.999829c-0.034133-69.188151 13.516777-136.26004 40.277266-199.338334a509.95115 509.95115 0 0 1 109.670217-162.747462A509.643951 509.643951 0 0 1 312.695628 40.277949 509.473284 509.473284 0 0 1 511.999829 0.000683c69.188151 0 136.191773 13.550911 199.304201 40.277266a509.74635 509.74635 0 0 1 162.713329 109.738484A511.111681 511.111681 0 0 1 1023.998976 512.102229c0 69.188151-13.550911 136.26004-40.277266 199.338335a510.087683 510.087683 0 0 1-109.704351 162.747462 509.029552 509.029552 0 0 1-162.815728 109.533684A507.561821 507.561821 0 0 1 511.999829 1023.998976" p-id="6154" fill="#bfbfbf"></path></svg>